<svg width="16" height="16" viewBox="0 0 16 16" fill="none" xmlns="http://www.w3.org/2000/svg">
  <path d="M8 15.733A7.733 7.733 0 1 0 8 .267a7.733 7.733 0 0 0 0 15.466Z" fill="#000"/>
  <path fill-rule="evenodd" clip-rule="evenodd" d="M8 .533a7.467 7.467 0 1 0 0 14.934A7.467 7.467 0 0 0 8 .533ZM0 8a8 8 0 1 1 16 0A8 8 0 0 1 0 8Z" fill="#fff"/>
  <path d="M13.29 14.002 6.146 4.8H4.8v6.397h1.077v-5.03l6.567 8.486c.297-.198.58-.416.846-.651Z" fill="url(#b)"/>
  <path d="M11.289 4.8h-1.067v6.4h1.067V4.8Z" fill="url(#c)"/>
  <defs>
    <linearGradient id="b" x1="9.689" y1="10.355" x2="12.845" y2="14.267" gradientUnits="userSpaceOnUse">
      <stop stop-color="#fff"/>
      <stop offset="1" stop-color="#fff" stop-opacity="0"/>
    </linearGradient>
    <linearGradient id="c" x1="10.755" y1="4.8" x2="10.738" y2="9.5" gradientUnits="userSpaceOnUse">
      <stop stop-color="#fff"/>
      <stop offset="1" stop-color="#fff" stop-opacity="0"/>
    </linearGradient>
  </defs>
</svg>