<svg width="16" height="16" viewBox="0 0 16 16" fill="none" xmlns="http://www.w3.org/2000/svg">
  <path d="M8.001.832a9.959 9.959 0 0 0-1.666.143c-1.476.26-1.744.806-1.744 1.813v1.329h3.488v.443H3.28c-1.013 0-1.9.61-2.178 1.768-.32 1.329-.334 2.158 0 3.545.248 1.033.84 1.768 1.854 1.768h1.199v-1.593c0-1.151.996-2.167 2.179-2.167h3.483c.97 0 1.744-.798 1.744-1.772V2.788c0-.946-.797-1.656-1.744-1.813C9.22.875 8.598.83 8.001.832Zm-1.886 1.07c.36 0 .655.298.655.666a.66.66 0 0 1-.655.663.658.658 0 0 1-.654-.663.66.66 0 0 1 .654-.667Z" fill="url(#a)"/>
  <path d="M11.997 4.56v1.549c0 1.2-1.018 2.211-2.179 2.211H6.335c-.955 0-1.744.817-1.744 1.772v3.322c0 .945.822 1.5 1.744 1.772 1.104.325 2.162.383 3.483 0 .878-.254 1.744-.766 1.744-1.772v-1.33H8.08v-.443h5.227c1.014 0 1.392-.707 1.744-1.768.364-1.093.349-2.143 0-3.545-.25-1.009-.729-1.768-1.744-1.768h-1.309Zm-1.96 8.41c.362 0 .655.297.655.663a.66.66 0 0 1-.654.667.662.662 0 0 1-.655-.667.66.66 0 0 1 .655-.663Z" fill="url(#b)"/>
  <defs>
    <linearGradient id="a" x1=".857" y1=".832" x2="8.9" y2="7.685" gradientUnits="userSpaceOnUse">
      <stop stop-color="#5A9FD4"/>
      <stop offset="1" stop-color="#306998"/>
    </linearGradient>
    <linearGradient id="b" x1="9.954" y1="13.521" x2="7.069" y2="9.478" gradientUnits="userSpaceOnUse">
      <stop stop-color="#FFD43B"/>
      <stop offset="1" stop-color="#FFE873"/>
    </linearGradient>
  </defs>
</svg>