<svg width="16" height="16" viewBox="0 0 16 16" fill="#fff" xmlns="http://www.w3.org/2000/svg">
  <path fill-rule="evenodd" clip-rule="evenodd" d="M9.854 1.537 9.608.85A.212.212 0 0 0 9.25.78l-.492.54a6.708 6.708 0 0 0-.2-.019L8.181.674a.212.212 0 0 0-.364 0L7.44 1.3a6.762 6.762 0 0 0-.2.02L6.749.779a.212.212 0 0 0-.357.071l-.246.687-.195.06-.586-.435a.212.212 0 0 0-.337.14l-.107.722c-.06.03-.12.063-.18.095l-.66-.312a.212.212 0 0 0-.303.203l.036.73a6.788 6.788 0 0 0-.156.128l-.71-.177a.212.212 0 0 0-.257.257l.177.71a6.762 6.762 0 0 0-.127.156l-.731-.036a.212.212 0 0 0-.203.303l.312.66-.095.18-.723.107a.212.212 0 0 0-.14.337l.435.586-.059.195-.687.246a.212.212 0 0 0-.07.357l.54.492a6.771 6.771 0 0 0-.019.2l-.627.377a.212.212 0 0 0 0 .364l.627.376c.006.068.012.135.02.201l-.542.492a.212.212 0 0 0 .071.357l.687.246.06.195-.435.587a.212.212 0 0 0 .14.336l.722.107c.03.06.063.12.095.18l-.312.66a.212.212 0 0 0 .203.303l.73-.036c.042.053.085.104.128.156l-.177.71a.212.212 0 0 0 .257.257l.71-.177c.052.043.104.086.156.127l-.036.731a.212.212 0 0 0 .303.203l.66-.312.18.095.107.723a.212.212 0 0 0 .337.14l.586-.435.195.059.246.687a.212.212 0 0 0 .357.07l.492-.54.2.019.377.627a.212.212 0 0 0 .364 0l.376-.627c.068-.006.135-.012.201-.02l.492.542a.212.212 0 0 0 .357-.071l.246-.687.195-.06.587.435a.212.212 0 0 0 .336-.14l.107-.722c.06-.03.12-.063.18-.095l.66.312a.212.212 0 0 0 .303-.203l-.036-.73a6.57 6.57 0 0 0 .156-.128l.71.177a.212.212 0 0 0 .257-.257l-.177-.71c.043-.052.086-.104.127-.156l.731.036a.212.212 0 0 0 .203-.303l-.312-.66.095-.18.723-.107a.212.212 0 0 0 .14-.336l-.435-.587.059-.195.687-.246a.212.212 0 0 0 .07-.357l-.54-.492a6.64 6.64 0 0 0 .019-.2l.627-.377a.212.212 0 0 0 0-.364l-.627-.376a6.65 6.65 0 0 0-.02-.201l.542-.492a.212.212 0 0 0-.071-.357l-.687-.246a7.057 7.057 0 0 0-.06-.195l.435-.586a.212.212 0 0 0-.14-.337l-.722-.107a6.564 6.564 0 0 0-.096-.18l.313-.66a.212.212 0 0 0-.203-.303l-.73.036a6.803 6.803 0 0 0-.128-.156l.177-.71a.212.212 0 0 0-.257-.257l-.71.177a6.536 6.536 0 0 0-.156-.128l.036-.73a.212.212 0 0 0-.303-.203l-.66.312a6.666 6.666 0 0 0-.18-.095l-.107-.723a.212.212 0 0 0-.336-.14l-.587.435-.195-.059ZM6.997 2.644a5.441 5.441 0 0 0-3.079 1.747h5.85c1.699 0 2.973 2.265.85 3.397.141 0 .707.566.849 1.273a.722.722 0 0 0 1.415-.283v-.283h.544a5.517 5.517 0 0 0-.023-1.196l-.885-.451a.425.425 0 0 1-.186-.571l.452-.886a5.455 5.455 0 0 0-3.78-2.747l-.704.703a.425.425 0 0 1-.6 0l-.703-.703ZM3.5 5.948l.168.329a.425.425 0 0 1-.186.57l-.885.452a5.5 5.5 0 0 0 .202 2.328h1.734V5.948H3.5Zm2.164 6.975-.156-.982a.425.425 0 0 0-.486-.353l-.98.155a5.475 5.475 0 0 1-.463-.56H8.07V9.628H6.797V8.495h1.415c.818 0 .972.741 1.118 1.446.132.636.259 1.243.863 1.243h2.228a5.47 5.47 0 0 1-.462.559l-.981-.155a.425.425 0 0 0-.486.353l-.156.982c-.708.337-1.5.525-2.336.525a5.427 5.427 0 0 1-2.336-.525Zm2.973-6.975h-1.84V7.08h1.84c1.132 0 1.132-1.132 0-1.132Z"/>
</svg>