<svg width="16" height="16" viewBox="0 0 16 16" fill="none" xmlns="http://www.w3.org/2000/svg">
  <path fill-rule="evenodd" clip-rule="evenodd" d="M8.658 7.036c.207-.053.386-.1.563-.148l.01-.002c.218-.058.433-.115.694-.182.09-.022.12-.06.075-.128a2.364 2.364 0 0 0-.875-1.063c-.61-.415-1.29-.498-1.998-.37a3.347 3.347 0 0 0-2.112 1.305c-.498.649-.739 1.388-.641 2.21.083.693.4 1.252.958 1.674.603.452 1.29.596 2.028.498.898-.121 1.607-.566 2.15-1.282.123-.163.228-.333.317-.511.127.459.382.853.754 1.174.528.453 1.154.649 1.84.664.067-.008.135-.014.203-.02h.002c.131-.012.265-.023.398-.048a3.456 3.456 0 0 0 1.81-.965c.701-.71.995-1.539.867-2.557-.098-.724-.467-1.274-1.063-1.682-.656-.445-1.38-.52-2.15-.384-.897.158-1.56.535-2.11 1.26a3.203 3.203 0 0 0-.523.98H7.428a.204.204 0 0 0-.188.12 12.03 12.03 0 0 0-.385.822c-.053.128-.015.226.143.226h1.456l-.054.077-.002.002v.001a3.434 3.434 0 0 1-.148.2c-.339.384-.769.565-1.282.497-.595-.083-1.01-.58-1.018-1.184a1.604 1.604 0 0 1 .77-1.433c.43-.279.89-.347 1.364-.113.159.076.242.159.355.287.094.109.105.106.206.079l.013-.004Zm5.553.714v-.003c-.004-.061-.007-.114-.018-.168-.136-.746-.822-1.169-1.538-1.003-.702.159-1.154.604-1.32 1.312-.136.589.15 1.184.694 1.426.414.18.83.158 1.229-.045.596-.31.92-.792.958-1.44a4.066 4.066 0 0 1-.005-.079Z" fill="#00ACD7"/>
  <path d="M1.388 6.802c-.015.023-.008.038.022.038l2.73.008c.023 0 .06-.023.076-.046l.128-.196c.015-.022.007-.045-.023-.045H1.63c-.03 0-.068.015-.083.038l-.158.203ZM.271 7.534c-.03 0-.037-.015-.022-.038l.158-.203c.015-.023.053-.038.083-.038h3.44c.03 0 .044.023.037.045l-.06.181c-.008.03-.038.045-.068.045L.27 7.534ZM2.097 8.228c-.03 0-.038-.023-.023-.045l.106-.189c.015-.023.045-.045.075-.045h1.508c.03 0 .045.022.045.053l-.015.18c0 .03-.03.053-.052.053l-1.644-.007Z" fill="#00ACD7"/>
</svg>