<svg width="16" height="16" viewBox="0 0 16 16" fill="none" xmlns="http://www.w3.org/2000/svg">
  <path d="M13.028 2.91C11.744 1.068 9.203.524 7.366 1.693L4.14 3.75a3.697 3.697 0 0 0-1.672 2.478 3.893 3.893 0 0 0 .384 2.5c-.275.419-.466.89-.553 1.381a3.937 3.937 0 0 0 .675 2.982c1.287 1.84 3.825 2.384 5.662 1.215l3.226-2.056a3.697 3.697 0 0 0 1.671-2.478 3.893 3.893 0 0 0-.384-2.5c.275-.419.466-.888.553-1.381a3.964 3.964 0 0 0-.675-2.982Z" fill="#FF3E00"/>
  <path d="M7.05 13.266a2.566 2.566 0 0 1-2.75-1.02 2.377 2.377 0 0 1-.406-1.793c.018-.103.043-.203.078-.3l.06-.184.165.122c.381.28.81.493 1.262.63l.12.038-.013.12a.706.706 0 0 0 .13.477.772.772 0 0 0 .829.306.657.657 0 0 0 .197-.087l3.225-2.056c.16-.1.269-.263.303-.45a.707.707 0 0 0-.122-.54.772.772 0 0 0-.828-.307.654.654 0 0 0-.197.087l-1.228.785a2.369 2.369 0 0 1-.656.287 2.566 2.566 0 0 1-2.75-1.019 2.377 2.377 0 0 1-.407-1.793 2.222 2.222 0 0 1 1.007-1.49l3.225-2.057c.203-.128.422-.225.656-.288a2.566 2.566 0 0 1 2.75 1.02c.372.518.516 1.165.406 1.793a1.914 1.914 0 0 1-.078.3l-.06.184-.165-.122a4.162 4.162 0 0 0-1.262-.63l-.12-.038.013-.12a.707.707 0 0 0-.13-.477.772.772 0 0 0-.829-.307.655.655 0 0 0-.197.088L6.053 6.481a.672.672 0 0 0-.303.45c-.034.19.01.385.122.54a.772.772 0 0 0 .828.307.655.655 0 0 0 .197-.087l1.228-.785a2.37 2.37 0 0 1 .656-.287 2.566 2.566 0 0 1 2.75 1.018c.372.52.516 1.166.406 1.794a2.222 2.222 0 0 1-1.006 1.49l-3.225 2.057a2.41 2.41 0 0 1-.656.288Z" fill="#fff"/>
</svg>