<svg width="16" height="16" viewBox="0 0 16 16" fill="none" xmlns="http://www.w3.org/2000/svg">
  <path d="M2.596 14.477 1.395 1h13.213l-1.201 13.477L7.987 16" fill="#E34F26"/>
  <path d="m8.016 14.828 4.365-1.201 1.026-11.543h-5.39" fill="#EF652A"/>
  <path d="M8.016 7.094H5.82l-.147-1.7h2.344v-1.64h-4.16l.03.44.41 4.57h3.72v-1.67Zm0 4.306h-.03l-1.845-.498-.117-1.318H4.383l.205 2.607 3.399.938h.03V11.4Z" fill="#EBEBEB"/>
  <path d="M7.987 7.094v1.67h2.05l-.204 2.138-1.846.498v1.729l3.398-.938.03-.293.38-4.365.059-.44H7.987Zm0-3.34v1.641H12l.029-.352.088-.85.029-.44h-4.16Z" fill="#fff"/>
</svg>