<svg width="16" height="16" viewBox="0 0 16 16" fill="none" xmlns="http://www.w3.org/2000/svg">
  <path d="M5.895 13.746c-.682-.623-.882-1.934-.597-2.884.493.599 1.176.788 1.883.896 1.093.165 2.165.103 3.18-.396.116-.057.223-.133.35-.21.095.276.12.555.087.839-.081.69-.425 1.225-.972 1.63-.219.161-.45.306-.676.459-.695.469-.882 1.019-.622 1.82.007.019.012.038.026.086a1.826 1.826 0 0 1-.81-.693 1.95 1.95 0 0 1-.313-1.059c-.003-.187-.003-.375-.028-.56-.061-.448-.272-.649-.668-.66a.783.783 0 0 0-.815.636c-.007.03-.016.06-.026.096h.001Z" fill="url(#a)"/>
  <path d="M2 10.704s2.02-.984 4.047-.984L7.575 4.99c.057-.229.224-.384.413-.384.188 0 .355.155.413.384L9.928 9.72c2.4 0 4.048.984 4.048.984l-3.44-9.37c-.098-.276-.264-.454-.489-.454H5.93c-.225 0-.384.178-.49.455L2 10.704Z" fill="#fff"/>
  <defs>
    <linearGradient id="a" x1="5.172" y1="15.986" x2="11.762" y2="12.873" gradientUnits="userSpaceOnUse">
      <stop stop-color="#D83333"/>
      <stop offset="1" stop-color="#F041FF"/>
    </linearGradient>
  </defs>
</svg>